STARTFONT 2.1
FONT -FontForge-Collegiate-Book-R-Normal--24-240-75-75-P-105-ISO10646-1
SIZE 24 75 75
FONTBOUNDINGBOX 24 31 -2 -9
COMMENT "Generated by fontforge, http://fontforge.sourceforge.net"
COMMENT "Collegiate by Keith Bates, keith@k-type.com, K-Type Freebie 2005 and 2007.    Based on the lettering around the mosaic tile badge at Liverpool Collegiate School     www.keithbates.co.uk/collegiate"
STARTPROPERTIES 39
FOUNDRY "FontForge"
FAMILY_NAME "Collegiate"
WEIGHT_NAME "Book"
SLANT "R"
SETWIDTH_NAME "Normal"
ADD_STYLE_NAME ""
PIXEL_SIZE 24
POINT_SIZE 240
RESOLUTION_X 75
RESOLUTION_Y 75
SPACING "P"
AVERAGE_WIDTH 105
CHARSET_REGISTRY "ISO10646"
CHARSET_ENCODING "1"
FONTNAME_REGISTRY ""
CHARSET_COLLECTIONS "ISO8859-9 Symbol ISO10646-1"
FONT_NAME "Collegiate"
FACE_NAME "Collegiate"
COPYRIGHT "Collegiate by Keith Bates, keith@k-type.com, K-Type Freebie 2005 and 2007.    Based on the lettering around the mosaic tile badge at Liverpool Collegiate School     www.keithbates.co.uk/collegiate"
FONT_VERSION "Macromedia Fontographer 4.1.5 9/21/07"
FONT_ASCENT 19
FONT_DESCENT 5
UNDERLINE_POSITION -3
UNDERLINE_THICKNESS 1
X_HEIGHT 10
CAP_HEIGHT 15
RAW_ASCENT 800
RAW_DESCENT 200
NORM_SPACE 4
RELATIVE_WEIGHT 40
RELATIVE_SETWIDTH 50
SUPERSCRIPT_X 0
SUPERSCRIPT_Y 10
SUPERSCRIPT_SIZE 15
SUBSCRIPT_X 0
SUBSCRIPT_Y 3
SUBSCRIPT_SIZE 15
AVG_LOWERCASE_WIDTH 96
AVG_UPPERCASE_WIDTH 116
ENDPROPERTIES
CHARS 277
STARTCHAR space
ENCODING 32
SWIDTH 187 0
DWIDTH 4 0
BBX 1 1 0 0
BITMAP
00
ENDCHAR
STARTCHAR exclam
ENCODING 33
SWIDTH 247 0
DWIDTH 6 0
BBX 4 16 1 0
BITMAP
60
60
60
60
60
60
60
60
60
60
60
60
60
F0
F0
60
ENDCHAR
STARTCHAR quotedbl
ENCODING 34
SWIDTH 380 0
DWIDTH 9 0
BBX 7 5 1 11
BITMAP
6C
EE
EE
EE
64
ENDCHAR
STARTCHAR numbersign
ENCODING 35
SWIDTH 572 0
DWIDTH 14 0
BBX 14 16 0 0
BITMAP
0E18
0C38
0C30
0C30
FFFC
FFFC
1870
1860
1860
3860
FFFC
FFFC
30C0
30C0
70C0
61C0
ENDCHAR
STARTCHAR dollar
ENCODING 36
SWIDTH 418 0
DWIDTH 10 0
BBX 8 18 1 -2
BITMAP
18
18
7E
FE
E2
E0
E0
78
3C
1E
07
07
07
87
FF
FE
38
18
ENDCHAR
STARTCHAR percent
ENCODING 37
SWIDTH 671 0
DWIDTH 16 0
BBX 14 16 1 0
BITMAP
7820
FC70
CC60
CCE0
CCC0
CDC0
FD80
7BF8
03FC
06CC
0ECC
0CCC
1CCC
18CC
38FC
1078
ENDCHAR
STARTCHAR ampersand
ENCODING 38
SWIDTH 638 0
DWIDTH 15 0
BBX 14 17 1 -1
BITMAP
0F00
1F80
3FC0
39C0
31C0
3B80
3F80
1E00
3F00
7F18
73B8
E1F8
E0F0
F0F0
7FF8
7FFC
3F00
ENDCHAR
STARTCHAR quotesingle
ENCODING 39
SWIDTH 220 0
DWIDTH 5 0
BBX 3 5 1 11
BITMAP
60
E0
E0
E0
40
ENDCHAR
STARTCHAR parenleft
ENCODING 40
SWIDTH 333 0
DWIDTH 8 0
BBX 5 20 2 -2
BITMAP
10
38
38
70
70
60
E0
E0
E0
E0
E0
E0
E0
E0
60
70
70
38
38
10
ENDCHAR
STARTCHAR parenright
ENCODING 41
SWIDTH 333 0
DWIDTH 8 0
BBX 5 20 1 -2
BITMAP
40
E0
E0
70
70
30
38
38
38
38
38
38
38
38
30
70
70
E0
E0
40
ENDCHAR
STARTCHAR asterisk
ENCODING 42
SWIDTH 363 0
DWIDTH 9 0
BBX 7 7 1 9
BITMAP
28
6C
3A
FE
38
6C
28
ENDCHAR
STARTCHAR plus
ENCODING 43
SWIDTH 561 0
DWIDTH 13 0
BBX 11 12 1 2
BITMAP
0E00
0E00
0E00
0E00
0E00
FFE0
FFE0
FFE0
0E00
0E00
0E00
0E00
ENDCHAR
STARTCHAR comma
ENCODING 44
SWIDTH 233 0
DWIDTH 6 0
BBX 4 6 1 -2
BITMAP
60
F0
F0
E0
60
C0
ENDCHAR
STARTCHAR hyphen
ENCODING 45
SWIDTH 321 0
DWIDTH 8 0
BBX 6 3 1 4
BITMAP
E4
FC
FC
ENDCHAR
STARTCHAR period
ENCODING 46
SWIDTH 233 0
DWIDTH 6 0
BBX 4 4 1 0
BITMAP
60
F0
F0
60
ENDCHAR
STARTCHAR slash
ENCODING 47
SWIDTH 340 0
DWIDTH 8 0
BBX 8 18 0 -1
BITMAP
02
07
07
06
0E
0E
0C
1C
1C
18
38
30
30
70
60
60
E0
60
ENDCHAR
STARTCHAR zero
ENCODING 48
SWIDTH 516 0
DWIDTH 12 0
BBX 11 16 1 0
BITMAP
1F00
3F80
7FC0
F1C0
E1E0
E0E0
E0E0
E0E0
E0E0
E0E0
E0E0
E1E0
F1C0
7FC0
7F80
1F00
ENDCHAR
STARTCHAR one
ENCODING 49
SWIDTH 287 0
DWIDTH 7 0
BBX 5 16 0 0
BITMAP
18
38
F8
F8
38
38
38
38
38
38
38
38
38
38
38
38
ENDCHAR
STARTCHAR two
ENCODING 50
SWIDTH 447 0
DWIDTH 11 0
BBX 9 16 1 0
BITMAP
3E00
7F00
7F80
8780
0380
0700
0700
0E00
0E00
1C00
3800
7000
7000
FF80
FF80
FF80
ENDCHAR
STARTCHAR three
ENCODING 51
SWIDTH 428 0
DWIDTH 10 0
BBX 8 16 1 0
BITMAP
F8
FC
FE
0E
0E
0E
3C
3E
3F
07
07
07
0F
FF
FE
FC
ENDCHAR
STARTCHAR four
ENCODING 52
SWIDTH 488 0
DWIDTH 12 0
BBX 10 16 1 0
BITMAP
0700
0700
0F00
1F00
1F00
3B00
3300
7300
E300
FFC0
FFC0
FFC0
0300
0300
0300
0380
ENDCHAR
STARTCHAR five
ENCODING 53
SWIDTH 451 0
DWIDTH 11 0
BBX 9 16 1 0
BITMAP
7F00
7F00
7F00
E000
E000
E000
FC00
7F00
0700
0380
0380
0380
0700
FF00
FE00
7C00
ENDCHAR
STARTCHAR six
ENCODING 54
SWIDTH 506 0
DWIDTH 12 0
BBX 10 16 1 0
BITMAP
0F00
3F80
7F80
7000
F000
EF00
FF80
FFC0
E1C0
E1C0
E1C0
E1C0
73C0
7F80
3F80
1E00
ENDCHAR
STARTCHAR seven
ENCODING 55
SWIDTH 410 0
DWIDTH 10 0
BBX 8 16 1 0
BITMAP
FF
FF
FF
07
0E
0E
0E
1C
1C
38
38
78
70
70
E0
E0
ENDCHAR
STARTCHAR eight
ENCODING 56
SWIDTH 499 0
DWIDTH 12 0
BBX 10 16 1 0
BITMAP
1E00
7F80
7380
6180
6180
7380
7F80
7F80
F3C0
E1C0
E1C0
E1C0
F3C0
FFC0
7F80
3F00
ENDCHAR
STARTCHAR nine
ENCODING 57
SWIDTH 495 0
DWIDTH 12 0
BBX 10 16 1 0
BITMAP
1E00
7F00
7F80
F380
E1C0
E1C0
E1C0
E1C0
FFC0
7FC0
3DC0
03C0
0780
7F80
7F00
3C00
ENDCHAR
STARTCHAR colon
ENCODING 58
SWIDTH 233 0
DWIDTH 6 0
BBX 4 10 1 0
BITMAP
60
F0
F0
60
00
00
60
F0
F0
60
ENDCHAR
STARTCHAR semicolon
ENCODING 59
SWIDTH 233 0
DWIDTH 6 0
BBX 4 12 1 -2
BITMAP
60
F0
F0
60
00
00
60
F0
F0
E0
60
C0
ENDCHAR
STARTCHAR less
ENCODING 60
SWIDTH 572 0
DWIDTH 14 0
BBX 12 13 1 2
BITMAP
0010
00F0
03F0
0FC0
3F00
FC00
E000
FC00
3F00
0FC0
03F0
00F0
0010
ENDCHAR
STARTCHAR equal
ENCODING 61
SWIDTH 572 0
DWIDTH 14 0
BBX 12 9 1 4
BITMAP
FFF0
FFF0
FFF0
0000
0000
0000
FFF0
FFF0
FFF0
ENDCHAR
STARTCHAR greater
ENCODING 62
SWIDTH 572 0
DWIDTH 14 0
BBX 12 13 1 2
BITMAP
8000
F000
FC00
3F00
0FC0
03F0
0070
03F0
0FC0
3F00
FC00
F000
8000
ENDCHAR
STARTCHAR question
ENCODING 63
SWIDTH 382 0
DWIDTH 9 0
BBX 7 16 1 0
BITMAP
7C
FE
8E
06
0E
1E
3C
38
70
70
70
00
70
70
78
70
ENDCHAR
STARTCHAR at
ENCODING 64
SWIDTH 683 0
DWIDTH 16 0
BBX 15 17 1 0
BITMAP
07E0
1FF0
3838
700C
638C
C7E6
CEE6
DC66
9CC6
D8CC
DCCC
CFF8
6770
7008
3838
1FF0
07C0
ENDCHAR
STARTCHAR A
ENCODING 65
SWIDTH 528 0
DWIDTH 13 0
BBX 12 16 0 0
BITMAP
0F00
0F80
0F80
0F80
1F80
1DC0
1DC0
19C0
39C0
39E0
3FF0
3FF0
7FF0
70F0
7070
E070
ENDCHAR
STARTCHAR B
ENCODING 66
SWIDTH 500 0
DWIDTH 12 0
BBX 10 16 1 0
BITMAP
FE00
FF80
FF80
E3C0
E1C0
E380
FF80
FF80
FFC0
E1C0
E1C0
E1C0
E1C0
FFC0
FF80
FF00
ENDCHAR
STARTCHAR C
ENCODING 67
SWIDTH 417 0
DWIDTH 10 0
BBX 8 16 1 0
BITMAP
1F
3F
7F
70
F0
E0
E0
E0
E0
E0
E0
E0
F0
7F
3F
1F
ENDCHAR
STARTCHAR D
ENCODING 68
SWIDTH 528 0
DWIDTH 13 0
BBX 11 16 1 0
BITMAP
FE00
FF80
FFC0
E1C0
E0E0
E0E0
E0E0
E0E0
E0E0
E0E0
E0E0
E0E0
E1C0
FFC0
FF80
FF00
ENDCHAR
STARTCHAR E
ENCODING 69
SWIDTH 404 0
DWIDTH 10 0
BBX 8 16 1 0
BITMAP
FF
FF
FF
E0
E0
E0
E0
FE
FE
E0
E0
E0
E0
FF
FF
FF
ENDCHAR
STARTCHAR F
ENCODING 70
SWIDTH 382 0
DWIDTH 9 0
BBX 8 16 1 0
BITMAP
FF
FF
FF
E0
E0
E0
E0
FE
FE
E0
E0
E0
E0
E0
E0
E0
ENDCHAR
STARTCHAR G
ENCODING 71
SWIDTH 529 0
DWIDTH 13 0
BBX 11 16 1 0
BITMAP
1F00
3F80
7F80
F080
E000
E000
E000
E000
E0E0
E0E0
E0E0
E0E0
F1E0
7FE0
7FE0
1F20
ENDCHAR
STARTCHAR H
ENCODING 72
SWIDTH 544 0
DWIDTH 13 0
BBX 11 16 1 0
BITMAP
E0E0
E0E0
E0E0
E0E0
E0E0
E0E0
FFE0
FFE0
FFE0
E0E0
E0E0
E0E0
E0E0
E0E0
E0E0
E0E0
ENDCHAR
STARTCHAR I
ENCODING 73
SWIDTH 232 0
DWIDTH 6 0
BBX 3 16 1 0
BITMAP
E0
E0
E0
E0
E0
E0
E0
E0
E0
E0
E0
E0
E0
E0
E0
E0
ENDCHAR
STARTCHAR J
ENCODING 74
SWIDTH 373 0
DWIDTH 9 0
BBX 8 16 0 0
BITMAP
FF
FF
FF
07
07
07
07
07
07
07
07
07
0E
FE
FC
F8
ENDCHAR
STARTCHAR K
ENCODING 75
SWIDTH 489 0
DWIDTH 12 0
BBX 10 16 1 0
BITMAP
E1C0
E380
E380
E700
EE00
EE00
FC00
F800
FC00
FE00
EE00
E700
E700
E380
E3C0
E1C0
ENDCHAR
STARTCHAR L
ENCODING 76
SWIDTH 402 0
DWIDTH 10 0
BBX 9 16 1 0
BITMAP
E000
E000
E000
E000
E000
E000
E000
E000
E000
E000
E000
E000
E000
FF80
FF80
FF80
ENDCHAR
STARTCHAR M
ENCODING 77
SWIDTH 619 0
DWIDTH 15 0
BBX 13 16 1 0
BITMAP
E038
F030
F070
F070
F8F0
F8F0
FCF0
FDF0
FDB0
EFB0
EFB0
E730
E730
E630
E070
E078
ENDCHAR
STARTCHAR N
ENCODING 78
SWIDTH 524 0
DWIDTH 13 0
BBX 10 16 1 0
BITMAP
E1C0
F1C0
F1C0
F9C0
F9C0
FDC0
EFC0
EFC0
E7C0
E7C0
E3C0
E1C0
E1C0
E1C0
E1C0
E1C0
ENDCHAR
STARTCHAR O
ENCODING 79
SWIDTH 529 0
DWIDTH 13 0
BBX 11 16 1 0
BITMAP
1F00
7F80
7FC0
F1E0
E0E0
E0E0
E0E0
E0E0
E0E0
E0E0
E0E0
E0E0
F1E0
7FC0
7F80
1F00
ENDCHAR
STARTCHAR P
ENCODING 80
SWIDTH 473 0
DWIDTH 11 0
BBX 10 16 1 0
BITMAP
FE00
FF00
FF80
E3C0
E1C0
E1C0
E1C0
E380
E780
EF00
FE00
FC00
F000
E000
E000
E000
ENDCHAR
STARTCHAR Q
ENCODING 81
SWIDTH 529 0
DWIDTH 13 0
BBX 11 16 1 0
BITMAP
1F00
7F80
7FC0
F1E0
E0E0
E0E0
E0E0
E0E0
E0E0
E0E0
E2E0
E7E0
F7C0
7FE0
7FE0
1F40
ENDCHAR
STARTCHAR R
ENCODING 82
SWIDTH 473 0
DWIDTH 11 0
BBX 10 16 1 0
BITMAP
FE00
FF00
FF80
E3C0
E1C0
E1C0
E1C0
E380
E780
EF00
FF00
FF00
F380
E380
E380
E1C0
ENDCHAR
STARTCHAR S
ENCODING 83
SWIDTH 418 0
DWIDTH 10 0
BBX 10 16 0 0
BITMAP
3F00
7F00
7F00
F000
6000
7000
7C00
1E00
0F00
0380
0380
03C0
8380
FF80
FF00
7E00
ENDCHAR
STARTCHAR T
ENCODING 84
SWIDTH 427 0
DWIDTH 10 0
BBX 10 16 0 0
BITMAP
FFC0
FFC0
FFC0
0E00
0E00
0E00
0E00
0E00
0E00
0E00
0E00
0E00
0E00
0E00
0E00
0E00
ENDCHAR
STARTCHAR U
ENCODING 85
SWIDTH 538 0
DWIDTH 13 0
BBX 11 16 1 0
BITMAP
E0E0
E0E0
E0E0
E0E0
E0E0
E0E0
E0E0
E0E0
E0E0
E0E0
E0E0
E0E0
F1E0
7FC0
3F80
1F00
ENDCHAR
STARTCHAR V
ENCODING 86
SWIDTH 522 0
DWIDTH 13 0
BBX 12 16 0 0
BITMAP
F070
7070
7070
7060
78E0
38E0
38E0
39C0
1DC0
1DC0
1DC0
1F80
0F80
0F80
0F00
0F00
ENDCHAR
STARTCHAR W
ENCODING 87
SWIDTH 720 0
DWIDTH 17 0
BBX 17 16 0 0
BITMAP
E1C380
71C380
71C380
71E300
71E700
71E700
3BE700
3BF700
3BF600
3B7E00
3F7E00
1F3E00
1F3E00
1E3C00
1E3C00
0E1C00
ENDCHAR
STARTCHAR X
ENCODING 88
SWIDTH 494 0
DWIDTH 12 0
BBX 12 16 0 0
BITMAP
70E0
70E0
39C0
39C0
1F80
1F80
0F00
0F00
0F00
0F00
1F80
1F80
39C0
39C0
70E0
F0F0
ENDCHAR
STARTCHAR Y
ENCODING 89
SWIDTH 480 0
DWIDTH 12 0
BBX 11 16 0 0
BITMAP
E0E0
70E0
71C0
39C0
3980
1B80
1F00
1F00
0F00
0E00
0E00
0E00
0E00
0E00
0E00
0E00
ENDCHAR
STARTCHAR Z
ENCODING 90
SWIDTH 423 0
DWIDTH 10 0
BBX 10 16 0 0
BITMAP
7FC0
7FC0
7FC0
0380
0300
0700
0600
0E00
1C00
1C00
3800
3000
7000
FFC0
FFC0
FFC0
ENDCHAR
STARTCHAR bracketleft
ENCODING 91
SWIDTH 334 0
DWIDTH 8 0
BBX 5 20 2 -2
BITMAP
F8
F8
E8
E0
E0
E0
E0
E0
E0
E0
E0
E0
E0
E0
E0
E0
E0
E8
F8
F8
ENDCHAR
STARTCHAR backslash
ENCODING 92
SWIDTH 340 0
DWIDTH 8 0
BBX 8 18 0 -1
BITMAP
60
E0
60
60
70
30
30
38
18
18
1C
0C
0E
0E
06
07
07
02
ENDCHAR
STARTCHAR bracketright
ENCODING 93
SWIDTH 333 0
DWIDTH 8 0
BBX 5 20 1 -2
BITMAP
F8
F8
F8
38
38
38
38
38
38
38
38
38
38
38
38
38
38
38
F8
F8
ENDCHAR
STARTCHAR asciicircum
ENCODING 94
SWIDTH 584 0
DWIDTH 14 0
BBX 12 9 1 7
BITMAP
0700
0F00
0F00
1F80
1980
39C0
39C0
70E0
F0F0
ENDCHAR
STARTCHAR underscore
ENCODING 95
SWIDTH 500 0
DWIDTH 12 0
BBX 12 2 0 -6
BITMAP
FFF0
FFF0
ENDCHAR
STARTCHAR grave
ENCODING 96
SWIDTH 271 0
DWIDTH 7 0
BBX 3 5 2 12
BITMAP
40
C0
C0
60
40
ENDCHAR
STARTCHAR a
ENCODING 97
SWIDTH 397 0
DWIDTH 10 0
BBX 8 11 1 0
BITMAP
7C
7E
46
07
3F
FF
E7
C7
CF
FF
7F
ENDCHAR
STARTCHAR b
ENCODING 98
SWIDTH 437 0
DWIDTH 10 0
BBX 9 16 1 0
BITMAP
E000
E000
E000
E000
E000
FE00
FF00
FF00
E380
E380
E380
E380
E380
FF00
FF00
FE00
ENDCHAR
STARTCHAR c
ENCODING 99
SWIDTH 355 0
DWIDTH 9 0
BBX 7 11 1 0
BITMAP
3C
7E
E2
E0
E0
E0
E0
E2
FE
7E
3E
ENDCHAR
STARTCHAR d
ENCODING 100
SWIDTH 436 0
DWIDTH 10 0
BBX 9 16 1 0
BITMAP
0380
0380
0380
0380
0380
3F80
7F80
E380
E380
E380
E380
E380
E380
FF80
7F80
3B80
ENDCHAR
STARTCHAR e
ENCODING 101
SWIDTH 405 0
DWIDTH 10 0
BBX 8 11 1 0
BITMAP
3C
7E
E7
E3
FF
FF
E0
E0
72
7E
1E
ENDCHAR
STARTCHAR f
ENCODING 102
SWIDTH 280 0
DWIDTH 7 0
BBX 7 16 0 0
BITMAP
1E
3E
32
70
70
FC
FC
70
70
70
70
70
70
70
70
70
ENDCHAR
STARTCHAR g
ENCODING 103
SWIDTH 415 0
DWIDTH 10 0
BBX 9 17 1 -6
BITMAP
3D80
7F80
E780
C700
C700
FF00
7E00
3C00
7000
7000
7C00
7F00
FF00
C380
C300
FF00
7E00
ENDCHAR
STARTCHAR h
ENCODING 104
SWIDTH 437 0
DWIDTH 10 0
BBX 9 16 1 0
BITMAP
E000
E000
E000
E000
E000
FE00
FF00
FF00
E380
E380
E380
E380
E380
E380
E380
E380
ENDCHAR
STARTCHAR i
ENCODING 105
SWIDTH 195 0
DWIDTH 5 0
BBX 3 16 1 0
BITMAP
C0
E0
E0
C0
00
E0
E0
E0
E0
E0
E0
E0
E0
E0
E0
E0
ENDCHAR
STARTCHAR j
ENCODING 106
SWIDTH 194 0
DWIDTH 5 0
BBX 5 21 -1 -5
BITMAP
30
38
38
30
00
38
38
38
38
38
38
38
38
38
38
38
38
38
F0
F0
C0
ENDCHAR
STARTCHAR k
ENCODING 107
SWIDTH 396 0
DWIDTH 10 0
BBX 8 16 1 0
BITMAP
E0
E0
E0
E0
E0
E7
EE
FC
FC
F8
F8
FC
EE
EE
E7
E7
ENDCHAR
STARTCHAR l
ENCODING 108
SWIDTH 195 0
DWIDTH 5 0
BBX 3 16 1 0
BITMAP
E0
E0
E0
E0
E0
E0
E0
E0
E0
E0
E0
E0
E0
E0
E0
E0
ENDCHAR
STARTCHAR m
ENCODING 109
SWIDTH 644 0
DWIDTH 15 0
BBX 14 11 1 0
BITMAP
EEF0
FFF8
FFF8
E71C
E31C
E31C
E31C
E31C
E31C
E31C
E31C
ENDCHAR
STARTCHAR n
ENCODING 110
SWIDTH 454 0
DWIDTH 11 0
BBX 9 11 1 0
BITMAP
EE00
FF00
FF00
E380
E380
E380
E380
E380
E380
E380
E380
ENDCHAR
STARTCHAR o
ENCODING 111
SWIDTH 423 0
DWIDTH 10 0
BBX 9 11 1 0
BITMAP
3C00
7F00
E700
E300
E380
E380
E380
E300
E700
7F00
3C00
ENDCHAR
STARTCHAR p
ENCODING 112
SWIDTH 437 0
DWIDTH 10 0
BBX 9 17 1 -6
BITMAP
FE00
FF00
FF00
E780
E380
E380
E380
E380
E700
FF00
FE00
E000
E000
E000
E000
E000
E000
ENDCHAR
STARTCHAR q
ENCODING 113
SWIDTH 435 0
DWIDTH 10 0
BBX 8 17 1 -6
BITMAP
3B
7F
FF
E7
E3
C3
C3
E3
E7
7F
3F
03
03
03
03
03
03
ENDCHAR
STARTCHAR r
ENCODING 114
SWIDTH 284 0
DWIDTH 7 0
BBX 5 11 1 0
BITMAP
F8
F8
E8
E0
E0
E0
E0
E0
E0
E0
E0
ENDCHAR
STARTCHAR s
ENCODING 115
SWIDTH 341 0
DWIDTH 8 0
BBX 7 11 1 0
BITMAP
7C
FC
C4
E0
F8
7C
1C
0E
FE
FC
F8
ENDCHAR
STARTCHAR t
ENCODING 116
SWIDTH 280 0
DWIDTH 7 0
BBX 7 13 0 0
BITMAP
70
30
FC
FC
30
30
30
30
30
30
32
3E
1E
ENDCHAR
STARTCHAR u
ENCODING 117
SWIDTH 449 0
DWIDTH 11 0
BBX 9 11 1 0
BITMAP
E380
E380
E380
E380
E380
E380
E380
E380
7F80
7F80
3B80
ENDCHAR
STARTCHAR v
ENCODING 118
SWIDTH 401 0
DWIDTH 10 0
BBX 9 11 0 0
BITMAP
E180
7380
7380
7300
3300
3F00
3F00
1E00
1E00
1E00
1C00
ENDCHAR
STARTCHAR w
ENCODING 119
SWIDTH 602 0
DWIDTH 14 0
BBX 13 11 1 0
BITMAP
C738
E738
E738
6F30
6FF0
6FF0
7DF0
3DE0
3DE0
38E0
38E0
ENDCHAR
STARTCHAR x
ENCODING 120
SWIDTH 398 0
DWIDTH 10 0
BBX 9 11 0 0
BITMAP
E380
7300
3700
3E00
1E00
0C00
1E00
3E00
3700
7300
F380
ENDCHAR
STARTCHAR y
ENCODING 121
SWIDTH 395 0
DWIDTH 9 0
BBX 8 16 1 -5
BITMAP
C7
E7
E7
66
6E
7E
7C
3C
3C
3C
38
38
38
30
70
70
ENDCHAR
STARTCHAR z
ENCODING 122
SWIDTH 346 0
DWIDTH 8 0
BBX 7 11 1 0
BITMAP
FE
FE
FE
1C
1C
38
70
70
E0
FE
FE
ENDCHAR
STARTCHAR braceleft
ENCODING 123
SWIDTH 377 0
DWIDTH 9 0
BBX 8 22 1 -5
BITMAP
0F
1F
1E
38
38
38
38
38
38
70
F0
F0
70
38
38
38
38
38
38
1E
1F
0F
ENDCHAR
STARTCHAR bar
ENCODING 124
SWIDTH 275 0
DWIDTH 7 0
BBX 3 24 2 -6
BITMAP
E0
E0
E0
E0
E0
E0
E0
E0
E0
E0
E0
E0
E0
E0
E0
E0
E0
E0
E0
E0
E0
E0
E0
E0
ENDCHAR
STARTCHAR braceright
ENCODING 125
SWIDTH 377 0
DWIDTH 9 0
BBX 7 22 1 -5
BITMAP
E0
F0
F8
38
38
38
38
38
38
1C
0E
0E
1C
38
38
38
38
38
38
F8
F0
E0
ENDCHAR
STARTCHAR asciitilde
ENCODING 126
SWIDTH 572 0
DWIDTH 14 0
BBX 12 5 1 4
BITMAP
7810
FE10
FFF0
87F0
81E0
ENDCHAR
STARTCHAR nonbreakingspace
ENCODING 160
SWIDTH 187 0
DWIDTH 4 0
BBX 1 1 0 0
BITMAP
00
ENDCHAR
STARTCHAR exclamdown
ENCODING 161
SWIDTH 247 0
DWIDTH 6 0
BBX 4 16 1 -5
BITMAP
60
F0
F0
60
60
60
60
60
60
60
60
60
60
60
60
60
ENDCHAR
STARTCHAR cent
ENCODING 162
SWIDTH 364 0
DWIDTH 9 0
BBX 7 14 1 -2
BITMAP
18
18
7E
7E
E2
E0
C0
C0
E0
E2
7E
3E
18
18
ENDCHAR
STARTCHAR sterling
ENCODING 163
SWIDTH 448 0
DWIDTH 11 0
BBX 9 16 1 0
BITMAP
1F00
7F00
7F00
7000
7000
7000
7000
FF00
FF00
FF00
3800
3800
3000
7F80
FF80
FF80
ENDCHAR
STARTCHAR currency
ENCODING 164
SWIDTH 462 0
DWIDTH 11 0
BBX 10 16 0 0
BITMAP
07C0
1FC0
1FC0
3C00
3800
7F00
7F00
F000
7000
FF00
FF00
3800
3C00
3FC0
1FC0
07C0
ENDCHAR
STARTCHAR yen
ENCODING 165
SWIDTH 519 0
DWIDTH 12 0
BBX 12 17 0 0
BITMAP
0040
2070
F0F0
70E0
39E0
39C0
1F80
1F80
0F00
3FE0
3FE0
0700
0700
0700
0700
0700
0F00
ENDCHAR
STARTCHAR brokenbar
ENCODING 166
SWIDTH 275 0
DWIDTH 7 0
BBX 3 20 2 -4
BITMAP
E0
E0
E0
E0
E0
E0
E0
E0
00
00
00
00
E0
E0
E0
E0
E0
E0
E0
E0
ENDCHAR
STARTCHAR section
ENCODING 167
SWIDTH 515 0
DWIDTH 12 0
BBX 12 17 0 0
BITMAP
0120
2DA0
1CE0
6560
E9E0
DBC0
BFC0
3F80
3F80
1FC0
0FE0
0FE0
05B0
0530
0900
0880
1FC0
ENDCHAR
STARTCHAR dieresis
ENCODING 168
SWIDTH 413 0
DWIDTH 10 0
BBX 6 3 2 13
BITMAP
CC
CC
CC
ENDCHAR
STARTCHAR copyright
ENCODING 169
SWIDTH 654 0
DWIDTH 16 0
BBX 14 17 2 0
BITMAP
0F80
1860
2030
6790
4F88
CC88
9C0C
9804
9804
9804
9C0C
CC88
4F88
6790
2030
1860
0F80
ENDCHAR
STARTCHAR ordfeminine
ENCODING 170
SWIDTH 276 0
DWIDTH 7 0
BBX 5 6 1 10
BITMAP
70
18
18
F8
D8
F8
ENDCHAR
STARTCHAR guillemotleft
ENCODING 171
SWIDTH 360 0
DWIDTH 9 0
BBX 7 8 1 2
BITMAP
24
3E
6C
FC
F8
6C
6C
36
ENDCHAR
STARTCHAR logicalnot
ENCODING 172
SWIDTH 572 0
DWIDTH 14 0
BBX 12 8 1 3
BITMAP
FFF0
FFF0
FFF0
0070
0070
0070
0070
0070
ENDCHAR
STARTCHAR minus
ENCODING 173
SWIDTH 561 0
DWIDTH 13 0
BBX 11 3 1 6
BITMAP
FFE0
FFE0
FFE0
ENDCHAR
STARTCHAR registered
ENCODING 174
SWIDTH 654 0
DWIDTH 16 0
BBX 14 17 2 0
BITMAP
0F80
1860
2030
6F10
4F88
CCC8
8CCC
8CC4
8DC4
8F84
8F8C
CC88
4CC8
6CD0
2030
1860
0F80
ENDCHAR
STARTCHAR macron
ENCODING 175
SWIDTH 449 0
DWIDTH 11 0
BBX 7 2 2 12
BITMAP
FE
FE
ENDCHAR
STARTCHAR degree
ENCODING 176
SWIDTH 396 0
DWIDTH 10 0
BBX 8 8 1 10
BITMAP
3C
7E
E6
C2
C3
C6
7E
3C
ENDCHAR
STARTCHAR plusminus
ENCODING 177
SWIDTH 682 0
DWIDTH 16 0
BBX 16 17 0 0
BITMAP
8422
7FFF
7AD6
5B7A
7FD6
5CAE
EBD7
7FDE
6B9A
699E
7DDA
D5B7
7A7E
57D6
BD7E
57FF
EC21
ENDCHAR
STARTCHAR twosuperior
ENCODING 178
SWIDTH 301 0
DWIDTH 7 0
BBX 5 10 1 7
BITMAP
F0
98
18
18
30
30
60
C0
F8
F8
ENDCHAR
STARTCHAR threesuperior
ENCODING 179
SWIDTH 273 0
DWIDTH 7 0
BBX 5 10 1 7
BITMAP
E0
F0
30
30
70
30
18
18
F0
E0
ENDCHAR
STARTCHAR acute
ENCODING 180
SWIDTH 271 0
DWIDTH 7 0
BBX 3 5 2 12
BITMAP
40
E0
C0
C0
80
ENDCHAR
STARTCHAR mu
ENCODING 181
SWIDTH 603 0
DWIDTH 14 0
BBX 11 15 2 -4
BITMAP
E0E0
E0E0
E0E0
E0E0
E0E0
E0E0
E1E0
F1E0
FFE0
FFE0
EEE0
E000
E000
E000
E000
ENDCHAR
STARTCHAR paragraph
ENCODING 182
SWIDTH 541 0
DWIDTH 13 0
BBX 13 21 0 -4
BITMAP
1FF8
7FF8
7FF8
FE70
FE70
FE70
7E70
7E70
1E70
0670
0670
0670
0670
0670
0670
0670
0670
0670
0670
0670
0670
ENDCHAR
STARTCHAR periodcentered
ENCODING 183
SWIDTH 233 0
DWIDTH 6 0
BBX 4 4 1 6
BITMAP
60
F0
F0
60
ENDCHAR
STARTCHAR cedilla
ENCODING 184
SWIDTH 405 0
DWIDTH 10 0
BBX 4 6 3 -5
BITMAP
60
60
60
30
F0
C0
ENDCHAR
STARTCHAR onesuperior
ENCODING 185
SWIDTH 241 0
DWIDTH 6 0
BBX 3 10 1 7
BITMAP
20
E0
E0
60
60
60
60
60
60
60
ENDCHAR
STARTCHAR ordmasculine
ENCODING 186
SWIDTH 286 0
DWIDTH 7 0
BBX 5 6 1 10
BITMAP
70
D8
98
98
D8
70
ENDCHAR
STARTCHAR guillemotright
ENCODING 187
SWIDTH 360 0
DWIDTH 9 0
BBX 7 8 1 2
BITMAP
D8
D8
6C
6C
7E
6C
D8
D0
ENDCHAR
STARTCHAR onequarter
ENCODING 188
SWIDTH 744 0
DWIDTH 18 0
BBX 16 17 1 0
BITMAP
200C
E018
6010
6030
6060
6040
60C0
6186
610E
630E
061E
0C36
0C36
187F
307F
3006
6006
ENDCHAR
STARTCHAR onehalf
ENCODING 189
SWIDTH 773 0
DWIDTH 19 0
BBX 17 17 1 0
BITMAP
200C00
E01800
601000
603000
606000
604000
60C000
618000
610F00
630100
060300
0C0300
0C0600
180400
300C00
301F80
601F80
ENDCHAR
STARTCHAR threequarters
ENCODING 190
SWIDTH 744 0
DWIDTH 18 0
BBX 16 17 1 0
BITMAP
E00E
F00C
3018
3030
7030
3060
18C0
18C6
F186
E30E
030A
061A
0C32
0C3F
183F
3002
7002
ENDCHAR
STARTCHAR questiondown
ENCODING 191
SWIDTH 382 0
DWIDTH 9 0
BBX 7 17 1 -6
BITMAP
0C
1E
1E
0C
00
00
1C
1C
1C
3C
38
70
E0
E0
E2
7E
3E
ENDCHAR
STARTCHAR Agrave
ENCODING 192
SWIDTH 535 0
DWIDTH 13 0
BBX 12 22 0 0
BITMAP
0200
0600
0600
0300
0000
0000
0F00
0F80
0F80
0F80
1F80
1FC0
1DC0
1DC0
39C0
39E0
3FF0
3FF0
7FF0
70F0
7070
E070
ENDCHAR
STARTCHAR Aacute
ENCODING 193
SWIDTH 535 0
DWIDTH 13 0
BBX 12 22 0 0
BITMAP
0200
0380
0300
0600
0000
0000
0F00
0F80
0F80
0F80
1F80
1FC0
1DC0
1DC0
39C0
39E0
3FF0
3FF0
7FF0
70F0
7070
E070
ENDCHAR
STARTCHAR Acircumflex
ENCODING 194
SWIDTH 530 0
DWIDTH 13 0
BBX 12 21 0 0
BITMAP
0700
0F80
0980
1880
0000
0F00
0F80
0F80
0F80
1F80
1FC0
1DC0
1DC0
39C0
39E0
3FF0
3FF0
7FF0
70F0
7070
E070
ENDCHAR
STARTCHAR Atilde
ENCODING 195
SWIDTH 532 0
DWIDTH 13 0
BBX 12 21 0 0
BITMAP
0E80
1FC0
1380
0000
0000
0F00
0F80
0F80
0F80
1F80
1FC0
1DC0
1DC0
39C0
39E0
3FF0
3FF0
7FF0
70F0
7070
E070
ENDCHAR
STARTCHAR Adieresis
ENCODING 196
SWIDTH 533 0
DWIDTH 13 0
BBX 12 21 0 0
BITMAP
1980
1DC0
1980
0000
0000
0F00
0F80
0F80
0F80
1F80
1DC0
1DC0
19C0
39C0
39E0
3FF0
3FF0
7FF0
70F0
7070
E070
ENDCHAR
STARTCHAR Aring
ENCODING 197
SWIDTH 537 0
DWIDTH 13 0
BBX 12 22 0 0
BITMAP
0700
0F80
0D80
0F80
0700
0000
0F00
0F80
0F80
0F80
1F80
1DC0
1DC0
19C0
39C0
39E0
3FF0
3FF0
7FF0
70F0
7070
E070
ENDCHAR
STARTCHAR AE
ENCODING 198
SWIDTH 754 0
DWIDTH 18 0
BBX 18 16 0 0
BITMAP
01FF80
01FF80
01FF80
03F000
03F000
077000
077F00
0FFF00
0FFF00
1F7000
1E7000
387000
387000
707FC0
707FC0
E07FC0
ENDCHAR
STARTCHAR Ccedilla
ENCODING 199
SWIDTH 417 0
DWIDTH 10 0
BBX 8 21 1 -5
BITMAP
1F
3F
7F
70
F0
E0
E0
E0
E0
E0
E0
E0
F0
7F
7F
1F
0C
0C
0C
3C
18
ENDCHAR
STARTCHAR Egrave
ENCODING 200
SWIDTH 442 0
DWIDTH 11 0
BBX 8 22 1 0
BITMAP
08
38
18
0C
00
00
FF
FF
FF
E0
E0
E0
E0
FE
FE
E0
E0
E0
E0
FF
FF
FF
ENDCHAR
STARTCHAR Eacute
ENCODING 201
SWIDTH 405 0
DWIDTH 10 0
BBX 8 22 1 0
BITMAP
08
0C
18
18
00
00
FF
FF
FF
E0
E0
E0
E0
FE
FE
E0
E0
E0
E0
FF
FF
FF
ENDCHAR
STARTCHAR Ecircumflex
ENCODING 202
SWIDTH 442 0
DWIDTH 11 0
BBX 8 21 1 0
BITMAP
1C
36
36
63
00
FF
FF
FF
E0
E0
E0
E0
FE
FE
E0
E0
E0
E0
FF
FF
FF
ENDCHAR
STARTCHAR Edieresis
ENCODING 203
SWIDTH 442 0
DWIDTH 11 0
BBX 8 21 1 0
BITMAP
33
77
33
00
00
FF
FF
FF
E0
E0
E0
E0
FE
FE
E0
E0
E0
E0
FF
FF
FF
ENDCHAR
STARTCHAR Igrave
ENCODING 204
SWIDTH 232 0
DWIDTH 6 0
BBX 3 22 1 0
BITMAP
40
C0
60
60
00
00
E0
E0
E0
E0
E0
E0
E0
E0
E0
E0
E0
E0
E0
E0
E0
E0
ENDCHAR
STARTCHAR Iacute
ENCODING 205
SWIDTH 232 0
DWIDTH 6 0
BBX 4 22 1 0
BITMAP
20
30
60
60
00
00
E0
E0
E0
E0
E0
E0
E0
E0
E0
E0
E0
E0
E0
E0
E0
E0
ENDCHAR
STARTCHAR Icircumflex
ENCODING 206
SWIDTH 232 0
DWIDTH 6 0
BBX 6 21 0 0
BITMAP
70
78
CC
88
00
70
70
70
70
70
70
70
70
70
70
70
70
70
70
70
70
ENDCHAR
STARTCHAR Idieresis
ENCODING 207
SWIDTH 232 0
DWIDTH 6 0
BBX 7 21 -1 0
BITMAP
66
EE
66
00
00
38
38
38
38
38
38
38
38
38
38
38
38
38
38
38
38
ENDCHAR
STARTCHAR Eth
ENCODING 208
SWIDTH 538 0
DWIDTH 13 0
BBX 12 16 0 0
BITMAP
7F80
3FC0
3FE0
38E0
3870
3870
3870
FE70
3870
3870
3870
3870
38F0
3FE0
3FE0
7F80
ENDCHAR
STARTCHAR Ntilde
ENCODING 209
SWIDTH 524 0
DWIDTH 13 0
BBX 10 21 1 0
BITMAP
1900
3F00
2700
0000
0000
E1C0
F1C0
F1C0
F9C0
F9C0
FDC0
EFC0
EFC0
E7C0
E7C0
E3C0
E1C0
E1C0
E1C0
E1C0
E1C0
ENDCHAR
STARTCHAR Ograve
ENCODING 210
SWIDTH 546 0
DWIDTH 13 0
BBX 11 22 1 0
BITMAP
0800
1C00
0C00
0600
0000
0000
1F00
7F80
7FC0
F1E0
E0E0
E0E0
E0E0
E0E0
E0E0
E0E0
E0E0
E0E0
F1E0
7FC0
7F80
1F00
ENDCHAR
STARTCHAR Oacute
ENCODING 211
SWIDTH 546 0
DWIDTH 13 0
BBX 11 22 1 0
BITMAP
0200
0700
0600
0C00
0000
0000
1F00
7F80
7FC0
F1E0
E0E0
E0E0
E0E0
E0E0
E0E0
E0E0
E0E0
E0E0
F1E0
7FC0
7F80
1F00
ENDCHAR
STARTCHAR Ocircumflex
ENCODING 212
SWIDTH 546 0
DWIDTH 13 0
BBX 11 21 1 0
BITMAP
0E00
1B00
1B00
3180
0000
1F00
7F80
7FC0
F1E0
E0E0
E0E0
E0E0
E0E0
E0E0
E0E0
E0E0
E0E0
F1E0
7FC0
7F80
1F00
ENDCHAR
STARTCHAR Otilde
ENCODING 213
SWIDTH 546 0
DWIDTH 13 0
BBX 11 21 1 0
BITMAP
1D00
3F80
1700
0000
0000
1F00
7F80
7FC0
F1E0
E0E0
E0E0
E0E0
E0E0
E0E0
E0E0
E0E0
E0E0
F1E0
7FC0
7F80
1F00
ENDCHAR
STARTCHAR Odieresis
ENCODING 214
SWIDTH 546 0
DWIDTH 13 0
BBX 11 21 1 0
BITMAP
1B80
3B80
1B80
0000
0000
1F00
7F80
7FC0
F1E0
E0E0
E0E0
E0E0
E0E0
E0E0
E0E0
E0E0
E0E0
F1E0
7FC0
7F80
1F00
ENDCHAR
STARTCHAR multiply
ENCODING 215
SWIDTH 561 0
DWIDTH 13 0
BBX 11 10 1 3
BITMAP
2040
70E0
F9C0
3F80
1F00
1F00
3F80
79C0
F0E0
2040
ENDCHAR
STARTCHAR Oslash
ENCODING 216
SWIDTH 546 0
DWIDTH 13 0
BBX 13 18 0 -1
BITMAP
0010
0FB8
1FF8
38F0
70F0
71F0
71F0
73F0
7770
7670
7E70
7C70
7870
78F0
7FE0
FFE0
EF80
4000
ENDCHAR
STARTCHAR Ugrave
ENCODING 217
SWIDTH 557 0
DWIDTH 13 0
BBX 11 22 1 0
BITMAP
0200
0600
0300
0300
0000
0000
E0E0
E0E0
E0E0
E0E0
E0E0
E0E0
E0E0
E0E0
E0E0
E0E0
E0E0
E0E0
F1E0
7FC0
3F80
1F00
ENDCHAR
STARTCHAR Uacute
ENCODING 218
SWIDTH 557 0
DWIDTH 13 0
BBX 11 22 1 0
BITMAP
0100
0180
0300
0300
0000
0000
E0E0
E0E0
E0E0
E0E0
E0E0
E0E0
E0E0
E0E0
E0E0
E0E0
E0E0
E0E0
F1E0
7FC0
3F80
1F00
ENDCHAR
STARTCHAR Ucircumflex
ENCODING 219
SWIDTH 557 0
DWIDTH 13 0
BBX 11 21 1 0
BITMAP
0380
0780
0CC0
0840
0000
E0E0
E0E0
E0E0
E0E0
E0E0
E0E0
E0E0
E0E0
E0E0
E0E0
E0E0
E0E0
F1E0
7FC0
3F80
1F00
ENDCHAR
STARTCHAR Udieresis
ENCODING 220
SWIDTH 557 0
DWIDTH 13 0
BBX 11 21 1 0
BITMAP
1B80
3B80
1980
0000
0000
E0E0
E0E0
E0E0
E0E0
E0E0
E0E0
E0E0
E0E0
E0E0
E0E0
E0E0
E0E0
F1E0
7FC0
3F80
1F00
ENDCHAR
STARTCHAR Yacute
ENCODING 221
SWIDTH 480 0
DWIDTH 12 0
BBX 11 22 0 0
BITMAP
0200
0300
0600
0600
0000
0000
E0E0
70E0
71C0
39C0
3980
1B80
1F00
1F00
0F00
0E00
0E00
0E00
0E00
0E00
0E00
0E00
ENDCHAR
STARTCHAR Thorn
ENCODING 222
SWIDTH 473 0
DWIDTH 11 0
BBX 10 19 1 0
BITMAP
E000
E000
E000
FC00
FF00
FF80
E3C0
E1C0
E1C0
E1C0
E380
E380
E700
FE00
FC00
F000
E000
E000
E000
ENDCHAR
STARTCHAR germandbls
ENCODING 223
SWIDTH 463 0
DWIDTH 11 0
BBX 10 17 1 -1
BITMAP
1E00
7F00
7F80
F380
E380
E300
E700
EF80
EF80
E3C0
E1C0
E180
E380
E780
EF00
FE00
0C00
ENDCHAR
STARTCHAR agrave
ENCODING 224
SWIDTH 387 0
DWIDTH 9 0
BBX 8 17 0 0
BITMAP
08
18
0C
0C
00
00
3E
3F
47
03
3F
7F
63
E3
67
7F
3B
ENDCHAR
STARTCHAR aacute
ENCODING 225
SWIDTH 387 0
DWIDTH 9 0
BBX 8 17 0 0
BITMAP
04
0E
0C
08
00
00
3E
3F
47
03
3F
7F
63
E3
67
7F
3B
ENDCHAR
STARTCHAR acircumflex
ENCODING 226
SWIDTH 389 0
DWIDTH 9 0
BBX 8 16 0 0
BITMAP
1C
36
36
63
00
3E
3F
27
03
3F
7F
63
E3
67
7F
3B
ENDCHAR
STARTCHAR atilde
ENCODING 227
SWIDTH 389 0
DWIDTH 9 0
BBX 8 16 0 0
BITMAP
3A
7F
2E
00
00
3E
3F
47
03
3F
7F
63
E3
67
7F
3B
ENDCHAR
STARTCHAR adieresis
ENCODING 228
SWIDTH 389 0
DWIDTH 9 0
BBX 8 16 0 0
BITMAP
76
77
36
00
00
3E
3F
47
03
3F
7F
63
E3
67
7F
3B
ENDCHAR
STARTCHAR aring
ENCODING 229
SWIDTH 390 0
DWIDTH 9 0
BBX 8 17 0 0
BITMAP
1C
3E
36
3E
1C
00
3E
3F
47
03
3F
7F
63
E3
67
7F
3B
ENDCHAR
STARTCHAR ae
ENCODING 230
SWIDTH 636 0
DWIDTH 15 0
BBX 15 11 0 0
BITMAP
7E70
7FFC
439C
038C
3FFC
7FFE
7380
E380
63C4
7FFC
3C7C
ENDCHAR
STARTCHAR ccedilla
ENCODING 231
SWIDTH 355 0
DWIDTH 9 0
BBX 7 16 1 -5
BITMAP
3C
7E
E2
E0
E0
E0
E0
E2
FE
7E
3C
18
18
08
3C
30
ENDCHAR
STARTCHAR egrave
ENCODING 232
SWIDTH 397 0
DWIDTH 10 0
BBX 8 17 1 0
BITMAP
10
70
30
18
00
00
3C
7E
E6
C7
FF
FF
C0
E0
E2
7E
3E
ENDCHAR
STARTCHAR eacute
ENCODING 233
SWIDTH 400 0
DWIDTH 10 0
BBX 8 17 1 0
BITMAP
08
1C
18
10
20
00
3C
7E
E6
C7
FF
FF
C0
E0
E2
7E
3E
ENDCHAR
STARTCHAR ecircumflex
ENCODING 234
SWIDTH 396 0
DWIDTH 10 0
BBX 8 16 1 0
BITMAP
38
3C
66
44
00
3C
7E
E6
C7
FF
FF
C0
E0
E2
7E
3E
ENDCHAR
STARTCHAR edieresis
ENCODING 235
SWIDTH 397 0
DWIDTH 10 0
BBX 8 16 1 0
BITMAP
66
EE
66
00
00
3C
7E
E6
C7
FF
FF
C0
E0
E2
7E
3E
ENDCHAR
STARTCHAR igrave
ENCODING 236
SWIDTH 188 0
DWIDTH 5 0
BBX 4 17 0 0
BITMAP
40
E0
60
20
00
00
70
60
60
60
60
60
60
60
60
60
60
ENDCHAR
STARTCHAR iacute
ENCODING 237
SWIDTH 189 0
DWIDTH 5 0
BBX 3 17 1 0
BITMAP
40
60
C0
C0
00
00
E0
C0
C0
C0
C0
C0
C0
C0
C0
C0
C0
ENDCHAR
STARTCHAR icircumflex
ENCODING 238
SWIDTH 190 0
DWIDTH 5 0
BBX 6 16 -1 0
BITMAP
38
78
CC
88
00
38
38
38
38
38
38
38
38
38
38
38
ENDCHAR
STARTCHAR idieresis
ENCODING 239
SWIDTH 195 0
DWIDTH 5 0
BBX 7 16 -1 0
BITMAP
CC
EE
CC
00
00
38
38
38
38
38
38
38
38
38
38
38
ENDCHAR
STARTCHAR eth
ENCODING 240
SWIDTH 495 0
DWIDTH 12 0
BBX 10 16 1 0
BITMAP
0880
1FC0
1F00
2780
0380
3DC0
7FC0
E3C0
E1C0
E1C0
E1C0
E1C0
E1C0
E380
7F80
1E00
ENDCHAR
STARTCHAR ntilde
ENCODING 241
SWIDTH 450 0
DWIDTH 11 0
BBX 9 16 1 0
BITMAP
3A00
7F00
4E00
0000
0000
FE00
FF00
FF00
E700
E380
E380
E380
E380
E380
E380
E380
ENDCHAR
STARTCHAR ograve
ENCODING 242
SWIDTH 421 0
DWIDTH 10 0
BBX 8 17 1 0
BITMAP
10
38
18
08
00
00
3C
7E
E7
C7
C3
C3
C3
C7
E7
7E
3C
ENDCHAR
STARTCHAR oacute
ENCODING 243
SWIDTH 421 0
DWIDTH 10 0
BBX 8 17 1 0
BITMAP
08
0C
18
10
00
00
3C
7E
E7
C7
C3
C3
C3
C7
E7
7E
3C
ENDCHAR
STARTCHAR ocircumflex
ENCODING 244
SWIDTH 421 0
DWIDTH 10 0
BBX 8 16 1 0
BITMAP
1C
3C
66
42
00
3C
7E
E7
C7
C3
C3
C3
C7
E7
7E
3C
ENDCHAR
STARTCHAR otilde
ENCODING 245
SWIDTH 418 0
DWIDTH 10 0
BBX 8 16 1 0
BITMAP
32
7E
4C
00
00
3C
7E
E7
C7
C3
C3
C3
C7
E7
7E
3C
ENDCHAR
STARTCHAR odieresis
ENCODING 246
SWIDTH 421 0
DWIDTH 10 0
BBX 8 16 1 0
BITMAP
66
66
66
00
00
3C
7E
E7
C7
C3
C3
C3
C7
E7
7E
3C
ENDCHAR
STARTCHAR divide
ENCODING 247
SWIDTH 561 0
DWIDTH 13 0
BBX 11 13 1 2
BITMAP
0600
0E00
0600
0000
0000
FFE0
FFE0
FFE0
0000
0000
0600
0E00
0600
ENDCHAR
STARTCHAR oslash
ENCODING 248
SWIDTH 455 0
DWIDTH 11 0
BBX 11 12 0 -1
BITMAP
1F40
3FE0
71C0
73C0
67C0
6EC0
6CC0
79C0
71C0
7F80
DF00
4000
ENDCHAR
STARTCHAR ugrave
ENCODING 249
SWIDTH 438 0
DWIDTH 11 0
BBX 9 17 1 0
BITMAP
0800
1800
0C00
0C00
0000
0000
E380
E380
E380
E380
E380
E380
E380
E380
FF80
7F80
3B80
ENDCHAR
STARTCHAR uacute
ENCODING 250
SWIDTH 438 0
DWIDTH 11 0
BBX 9 17 1 0
BITMAP
0800
0C00
1800
1800
0000
0000
E380
E380
E380
E380
E380
E380
E380
E380
FF80
7F80
3B80
ENDCHAR
STARTCHAR ucircumflex
ENCODING 251
SWIDTH 438 0
DWIDTH 11 0
BBX 9 16 1 0
BITMAP
1C00
3E00
2600
4200
0000
E380
E380
E380
E380
E380
E380
E380
E380
FF80
7F80
3B80
ENDCHAR
STARTCHAR udieresis
ENCODING 252
SWIDTH 438 0
DWIDTH 11 0
BBX 9 16 1 0
BITMAP
6600
7700
6600
0000
0000
E380
E380
E380
E380
E380
E380
E380
E380
FF80
7F80
3B80
ENDCHAR
STARTCHAR yacute
ENCODING 253
SWIDTH 405 0
DWIDTH 10 0
BBX 9 21 0 -5
BITMAP
0400
0600
0C00
0C00
0000
E380
7380
7380
7380
3700
3F00
3F00
1E00
1E00
1E00
1C00
1C00
1C00
1C00
3800
3800
ENDCHAR
STARTCHAR thorn
ENCODING 254
SWIDTH 447 0
DWIDTH 11 0
BBX 9 22 1 -6
BITMAP
E000
E000
E000
E000
E000
FE00
FF00
FF00
E380
E380
E380
E380
E380
E780
FF00
FE00
E000
E000
E000
E000
E000
E000
ENDCHAR
STARTCHAR ydieresis
ENCODING 255
SWIDTH 403 0
DWIDTH 10 0
BBX 9 21 0 -5
BITMAP
3300
7700
3300
0000
0000
E380
7380
7380
7300
3700
3F00
3F00
1E00
1E00
1E00
1C00
1C00
1C00
1800
3800
3800
ENDCHAR
STARTCHAR Aogonek
ENCODING 260
SWIDTH 528 0
DWIDTH 13 0
BBX 12 21 0 -5
BITMAP
0F00
0F80
0F80
0F80
1F80
1FC0
1DC0
1DC0
39C0
39E0
3FF0
3FF0
7FF0
70F0
7070
E070
0040
00C0
00C0
00F0
0070
ENDCHAR
STARTCHAR aogonek
ENCODING 261
SWIDTH 397 0
DWIDTH 10 0
BBX 8 16 1 -5
BITMAP
7C
7E
46
07
3F
FF
E7
C7
CF
FF
7F
04
0C
0C
0F
07
ENDCHAR
STARTCHAR Cacute
ENCODING 262
SWIDTH 417 0
DWIDTH 10 0
BBX 8 22 1 0
BITMAP
04
0E
0C
08
00
00
1F
3F
7F
70
F0
E0
E0
E0
E0
E0
E0
E0
F1
7F
3F
1F
ENDCHAR
STARTCHAR cacute
ENCODING 263
SWIDTH 364 0
DWIDTH 9 0
BBX 7 17 1 0
BITMAP
08
1C
18
10
00
00
3E
7E
E2
E0
C0
C0
E0
E2
FE
7E
3E
ENDCHAR
STARTCHAR Ccaron
ENCODING 268
SWIDTH 417 0
DWIDTH 10 0
BBX 8 22 1 0
BITMAP
63
36
3E
1C
00
00
1F
3F
7F
70
F0
E0
E0
E0
E0
E0
E0
E0
F1
7F
3F
1F
ENDCHAR
STARTCHAR ccaron
ENCODING 269
SWIDTH 364 0
DWIDTH 9 0
BBX 7 17 1 0
BITMAP
C6
6C
7C
38
00
00
3E
7E
E2
E0
C0
C0
E0
E2
FE
7E
3E
ENDCHAR
STARTCHAR Edotaccent
ENCODING 278
SWIDTH 404 0
DWIDTH 10 0
BBX 8 22 1 0
BITMAP
18
1C
1C
18
00
00
FF
FF
FF
E0
E0
E0
E0
FE
FE
E0
E0
E0
E0
FF
FF
FF
ENDCHAR
STARTCHAR edotaccent
ENCODING 279
SWIDTH 405 0
DWIDTH 10 0
BBX 8 16 1 0
BITMAP
18
3C
3C
18
00
3C
7E
E7
E3
FF
FF
E0
E0
72
7E
1E
ENDCHAR
STARTCHAR Eogonek
ENCODING 280
SWIDTH 404 0
DWIDTH 10 0
BBX 8 21 1 -5
BITMAP
FF
FF
FF
E0
E0
E0
E0
FE
FE
E0
E0
E0
E0
FF
FF
FF
06
04
06
07
07
ENDCHAR
STARTCHAR eogonek
ENCODING 281
SWIDTH 405 0
DWIDTH 10 0
BBX 8 16 1 -5
BITMAP
3C
7E
E7
E3
FF
FF
E0
E0
72
7E
3E
0C
0C
0C
0F
07
ENDCHAR
STARTCHAR Gbreve
ENCODING 286
SWIDTH 529 0
DWIDTH 13 0
BBX 11 20 1 0
BITMAP
3180
1F00
0E00
0000
1F00
3F80
7F80
F080
E000
E000
E000
E000
E0E0
E0E0
E0E0
E0E0
F1E0
7FE0
7FE0
1F20
ENDCHAR
STARTCHAR gbreve
ENCODING 287
SWIDTH 415 0
DWIDTH 10 0
BBX 9 21 1 -6
BITMAP
6600
7E00
3C00
0000
3D80
7F80
E780
C700
C700
FF00
7E00
3C00
7000
7000
7C00
7F00
FF00
C380
C300
FF00
7E00
ENDCHAR
STARTCHAR Iogonek
ENCODING 302
SWIDTH 232 0
DWIDTH 6 0
BBX 4 21 1 -5
BITMAP
E0
E0
E0
E0
E0
E0
E0
E0
E0
E0
E0
E0
E0
E0
E0
E0
C0
C0
C0
F0
70
ENDCHAR
STARTCHAR iogonek
ENCODING 303
SWIDTH 195 0
DWIDTH 5 0
BBX 4 21 0 -5
BITMAP
60
70
70
60
00
70
70
70
70
70
70
70
70
70
70
70
40
40
C0
70
70
ENDCHAR
STARTCHAR Idotaccent
ENCODING 304
SWIDTH 232 0
DWIDTH 6 0
BBX 3 21 1 0
BITMAP
60
E0
60
00
00
E0
E0
E0
E0
E0
E0
E0
E0
E0
E0
E0
E0
E0
E0
E0
E0
ENDCHAR
STARTCHAR dotlessi
ENCODING 305
SWIDTH 195 0
DWIDTH 5 0
BBX 3 11 1 0
BITMAP
E0
E0
E0
E0
E0
E0
E0
E0
E0
E0
E0
ENDCHAR
STARTCHAR Lslash
ENCODING 321
SWIDTH 427 0
DWIDTH 10 0
BBX 10 16 0 0
BITMAP
3800
3800
3800
3800
3800
3C00
3E00
3C00
7800
F800
B800
3800
3800
3FC0
3FC0
3FC0
ENDCHAR
STARTCHAR lslash
ENCODING 322
SWIDTH 273 0
DWIDTH 7 0
BBX 7 16 0 0
BITMAP
38
30
30
30
30
34
3E
3C
70
F0
B0
30
30
30
30
38
ENDCHAR
STARTCHAR OE
ENCODING 338
SWIDTH 751 0
DWIDTH 18 0
BBX 17 16 1 0
BITMAP
1EFF00
3FFF00
7FE100
F1E000
E0E000
E0E000
E0FE00
E0FE00
E0FE00
E0E000
E0E000
E0E000
F1E000
7FFF80
3FFF80
1EFF80
ENDCHAR
STARTCHAR oe
ENCODING 339
SWIDTH 689 0
DWIDTH 17 0
BBX 15 11 1 0
BITMAP
3C78
7FFC
E3DC
E38E
E3FE
C3FE
E380
E382
E3C6
7FFE
3E7C
ENDCHAR
STARTCHAR Scedilla
ENCODING 350
SWIDTH 418 0
DWIDTH 10 0
BBX 10 21 0 -5
BITMAP
3F00
7F00
7F00
F100
6000
7000
7C00
1E00
0F00
0380
0380
03C0
03C0
FF80
FF80
7F00
0C00
0C00
0600
1E00
1C00
ENDCHAR
STARTCHAR Scaron
ENCODING 352
SWIDTH 418 0
DWIDTH 10 0
BBX 10 21 0 0
BITMAP
6380
3300
1E00
1E00
0000
3F00
7F00
7F00
F000
6000
7000
7C00
1E00
0F00
0380
0380
03C0
8380
FF80
FF00
7E00
ENDCHAR
STARTCHAR scaron
ENCODING 353
SWIDTH 344 0
DWIDTH 8 0
BBX 8 16 0 0
BITMAP
E3
66
3C
3C
00
3E
7E
62
70
7C
3E
0F
07
7F
7E
7C
ENDCHAR
STARTCHAR Umacron
ENCODING 362
SWIDTH 538 0
DWIDTH 13 0
BBX 11 19 1 0
BITMAP
3F80
3F80
0000
E0E0
E0E0
E0E0
E0E0
E0E0
E0E0
E0E0
E0E0
E0E0
E0E0
E0E0
E0E0
F1E0
7FC0
3F80
1F00
ENDCHAR
STARTCHAR umacron
ENCODING 363
SWIDTH 449 0
DWIDTH 11 0
BBX 9 14 1 0
BITMAP
7F00
7F00
0000
E380
E380
E380
E380
E380
E380
E380
E380
7F80
7F80
3B80
ENDCHAR
STARTCHAR Uogonek
ENCODING 370
SWIDTH 538 0
DWIDTH 13 0
BBX 11 21 1 -5
BITMAP
E0E0
E0E0
E0E0
E0E0
E0E0
E0E0
E0E0
E0E0
E0E0
E0E0
E0E0
E0E0
F1E0
7FC0
7F80
1F00
0C00
0C00
0C00
0F00
0700
ENDCHAR
STARTCHAR uogonek
ENCODING 371
SWIDTH 449 0
DWIDTH 11 0
BBX 9 16 1 -5
BITMAP
E380
E380
E380
E380
E380
E380
E380
E380
7F80
7F80
3B80
0200
0600
0600
0780
0380
ENDCHAR
STARTCHAR Ydieresis
ENCODING 376
SWIDTH 488 0
DWIDTH 12 0
BBX 11 21 0 0
BITMAP
1980
3B80
1980
0000
0000
E0E0
70E0
71C0
39C0
3980
1B80
1F00
1F00
0F00
0E00
0E00
0E00
0E00
0E00
0E00
0E00
ENDCHAR
STARTCHAR Zcaron
ENCODING 381
SWIDTH 423 0
DWIDTH 10 0
BBX 10 21 0 0
BITMAP
3180
3B00
1F00
0E00
0000
7FC0
7FC0
7FC0
0380
0300
0700
0600
0E00
1C00
1C00
3800
3000
7000
FFC0
FFC0
FFC0
ENDCHAR
STARTCHAR zcaron
ENCODING 382
SWIDTH 346 0
DWIDTH 8 0
BBX 7 16 1 0
BITMAP
C6
EC
7C
38
00
FE
FE
FE
1C
1C
38
70
70
E0
FE
FE
ENDCHAR
STARTCHAR florin
ENCODING 402
SWIDTH 502 0
DWIDTH 12 0
BBX 14 20 -2 -3
BITMAP
0078
00FC
01FC
01C4
01C0
01C0
0FF0
0FF0
0FF0
0380
0700
0700
0700
0700
0E00
0E00
1E00
FC00
F800
7000
ENDCHAR
STARTCHAR circumflex
ENCODING 710
SWIDTH 387 0
DWIDTH 9 0
BBX 6 4 2 12
BITMAP
70
78
D8
8C
ENDCHAR
STARTCHAR caron
ENCODING 711
SWIDTH 326 0
DWIDTH 8 0
BBX 8 4 0 12
BITMAP
C3
66
3C
3C
ENDCHAR
STARTCHAR macron.dup1
ENCODING 713
SWIDTH 449 0
DWIDTH 11 0
BBX 7 2 2 12
BITMAP
FE
FE
ENDCHAR
STARTCHAR breve
ENCODING 728
SWIDTH 529 0
DWIDTH 13 0
BBX 7 3 3 17
BITMAP
C6
7C
38
ENDCHAR
STARTCHAR dotaccent
ENCODING 729
SWIDTH 326 0
DWIDTH 8 0
BBX 3 4 2 12
BITMAP
60
E0
E0
60
ENDCHAR
STARTCHAR ring
ENCODING 730
SWIDTH 333 0
DWIDTH 8 0
BBX 4 5 2 12
BITMAP
60
F0
90
F0
70
ENDCHAR
STARTCHAR ogonek
ENCODING 731
SWIDTH 397 0
DWIDTH 10 0
BBX 4 5 5 -5
BITMAP
60
C0
C0
F0
70
ENDCHAR
STARTCHAR tilde
ENCODING 732
SWIDTH 411 0
DWIDTH 10 0
BBX 6 3 2 13
BITMAP
64
FC
98
ENDCHAR
STARTCHAR hungarumlaut
ENCODING 733
SWIDTH 327 0
DWIDTH 8 0
BBX 9 3 0 13
BITMAP
7780
6600
CC00
ENDCHAR
STARTCHAR Delta
ENCODING 916
SWIDTH 732 0
DWIDTH 18 0
BBX 16 17 1 0
BITMAP
03C0
07C0
07C0
07E0
0FE0
0EF0
1EF0
1E70
1C78
3C38
3C3C
383C
781C
701E
FFFE
FFFE
FFFF
ENDCHAR
STARTCHAR Omega
ENCODING 937
SWIDTH 732 0
DWIDTH 18 0
BBX 16 17 1 0
BITMAP
07E0
1FF8
3FFC
7C3E
F01E
F00F
E00F
E00F
E00F
E00F
F00F
700E
781E
3C3C
FE7F
FE7F
FE7F
ENDCHAR
STARTCHAR mu.dup2
ENCODING 956
SWIDTH 603 0
DWIDTH 14 0
BBX 11 15 2 -4
BITMAP
E0E0
E0E0
E0E0
E0E0
E0E0
E0E0
E1E0
F1E0
FFE0
FFE0
EEE0
E000
E000
E000
E000
ENDCHAR
STARTCHAR pi
ENCODING 960
SWIDTH 618 0
DWIDTH 15 0
BBX 13 11 1 0
BITMAP
FFF8
FFF8
38E0
38E0
38E0
38E0
38E0
38E0
38E8
38F8
3878
ENDCHAR
STARTCHAR hyphen.dup3
ENCODING 8208
SWIDTH 321 0
DWIDTH 8 0
BBX 6 3 1 4
BITMAP
E4
FC
FC
ENDCHAR
STARTCHAR endash
ENCODING 8211
SWIDTH 504 0
DWIDTH 12 0
BBX 10 3 1 4
BITMAP
F840
FFC0
FFC0
ENDCHAR
STARTCHAR emdash
ENCODING 8212
SWIDTH 852 0
DWIDTH 20 0
BBX 18 3 1 4
BITMAP
FF8040
FFFFC0
FFFFC0
ENDCHAR
STARTCHAR quoteleft
ENCODING 8216
SWIDTH 233 0
DWIDTH 6 0
BBX 3 5 1 11
BITMAP
60
40
E0
E0
60
ENDCHAR
STARTCHAR quoteright
ENCODING 8217
SWIDTH 233 0
DWIDTH 6 0
BBX 3 5 1 11
BITMAP
60
E0
60
60
C0
ENDCHAR
STARTCHAR quotesinglbase
ENCODING 8218
SWIDTH 237 0
DWIDTH 6 0
BBX 3 5 1 -2
BITMAP
60
E0
60
60
C0
ENDCHAR
STARTCHAR quotedblleft
ENCODING 8220
SWIDTH 390 0
DWIDTH 9 0
BBX 7 5 1 11
BITMAP
66
4C
EE
EE
6E
ENDCHAR
STARTCHAR quotedblright
ENCODING 8221
SWIDTH 390 0
DWIDTH 9 0
BBX 7 5 1 11
BITMAP
6E
EE
6E
66
EC
ENDCHAR
STARTCHAR quotedblbase
ENCODING 8222
SWIDTH 390 0
DWIDTH 9 0
BBX 7 5 1 -2
BITMAP
6E
EE
6E
66
CC
ENDCHAR
STARTCHAR dagger
ENCODING 8224
SWIDTH 510 0
DWIDTH 12 0
BBX 10 21 1 -5
BITMAP
0E00
0C00
0C00
0C00
0C00
F7C0
FFC0
8C40
0C00
0C00
0C00
0C00
0C00
0C00
0C00
0C00
0E00
0E00
1E00
1E00
1E00
ENDCHAR
STARTCHAR daggerdbl
ENCODING 8225
SWIDTH 510 0
DWIDTH 12 0
BBX 10 25 1 -9
BITMAP
0E00
0C00
0C00
0C00
0C00
E5C0
FFC0
8C40
0C00
0C00
0C00
0C00
0E00
0C00
0C00
0C00
0C00
CC40
FFC0
E5C0
0C00
0C00
0C00
0C00
0E00
ENDCHAR
STARTCHAR bullet
ENCODING 8226
SWIDTH 310 0
DWIDTH 7 0
BBX 5 6 1 5
BITMAP
70
F8
F8
F8
F8
70
ENDCHAR
STARTCHAR ellipsis
ENCODING 8230
SWIDTH 1000 0
DWIDTH 24 0
BBX 20 4 2 0
BITMAP
606060
F0F0F0
F0F0F0
606060
ENDCHAR
STARTCHAR perthousand
ENCODING 8240
SWIDTH 966 0
DWIDTH 23 0
BBX 21 16 1 0
BITMAP
782000
FC7000
CC6000
CCE000
CCC000
CDC000
FD8000
7BF8F0
03FDF8
06CD98
0ECD98
0CCD98
1CCD98
18CD98
38FDF8
1078F0
ENDCHAR
STARTCHAR guilsinglleft
ENCODING 8249
SWIDTH 235 0
DWIDTH 6 0
BBX 4 8 1 2
BITMAP
20
30
60
E0
C0
60
60
30
ENDCHAR
STARTCHAR guilsinglright
ENCODING 8250
SWIDTH 235 0
DWIDTH 6 0
BBX 4 8 1 2
BITMAP
C0
C0
60
60
70
60
C0
C0
ENDCHAR
STARTCHAR fraction
ENCODING 8260
SWIDTH 425 0
DWIDTH 10 0
BBX 10 16 0 0
BITMAP
0080
01C0
0180
0380
0300
0700
0600
0E00
0C00
1C00
3800
3000
7000
6000
E000
4000
ENDCHAR
STARTCHAR euro
ENCODING 8364
SWIDTH 462 0
DWIDTH 11 0
BBX 10 16 0 0
BITMAP
07C0
1FC0
1FC0
3C00
3800
7F00
7F00
F000
7000
FF00
FF00
3800
3C00
3FC0
1FC0
07C0
ENDCHAR
STARTCHAR trademark
ENCODING 8482
SWIDTH 658 0
DWIDTH 16 0
BBX 14 9 1 8
BITMAP
F98C
2194
2194
2194
2154
2154
2164
2164
2124
ENDCHAR
STARTCHAR Omega.dup4
ENCODING 8486
SWIDTH 732 0
DWIDTH 18 0
BBX 16 17 1 0
BITMAP
07E0
1FF8
3FFC
7C3E
F01E
F00F
E00F
E00F
E00F
E00F
F00F
700E
781E
3C3C
FE7F
FE7F
FE7F
ENDCHAR
STARTCHAR partialdiff
ENCODING 8706
SWIDTH 493 0
DWIDTH 12 0
BBX 10 16 1 0
BITMAP
1E00
3F80
1F80
0BC0
01C0
01C0
3FC0
7FC0
FFC0
F3C0
E3C0
E3C0
E380
FF80
7F00
3C00
ENDCHAR
STARTCHAR Delta.dup5
ENCODING 8710
SWIDTH 732 0
DWIDTH 18 0
BBX 16 17 1 0
BITMAP
03C0
07C0
07C0
07E0
0FE0
0EF0
1EF0
1E70
1C78
3C38
3C3C
383C
781C
701E
FFFE
FFFE
FFFF
ENDCHAR
STARTCHAR product
ENCODING 8719
SWIDTH 768 0
DWIDTH 18 0
BBX 16 18 2 -2
BITMAP
FFFF
FFFF
381C
381C
381C
381C
381C
381C
381C
381C
381C
381C
381C
381C
381C
381C
381C
381C
ENDCHAR
STARTCHAR summation
ENCODING 8721
SWIDTH 587 0
DWIDTH 14 0
BBX 12 18 1 -1
BITMAP
FFF0
FFF0
FFF0
7800
3C00
1E00
0F00
0780
03C0
0780
0F00
1E00
1C00
3800
7000
FFF0
FFF0
FFF0
ENDCHAR
STARTCHAR minus.dup6
ENCODING 8722
SWIDTH 561 0
DWIDTH 13 0
BBX 11 3 1 6
BITMAP
FFE0
FFE0
FFE0
ENDCHAR
STARTCHAR periodcentered.dup7
ENCODING 8729
SWIDTH 233 0
DWIDTH 6 0
BBX 4 4 1 6
BITMAP
60
F0
F0
60
ENDCHAR
STARTCHAR radical
ENCODING 8730
SWIDTH 647 0
DWIDTH 16 0
BBX 17 22 -1 0
BITMAP
000380
000380
000780
000700
000700
000E00
000E00
000E00
001C00
1C1C00
3C3C00
FC3800
7E3800
8E7000
0E7000
0F7000
07E000
07E000
03E000
03C000
03C000
018000
ENDCHAR
STARTCHAR integral
ENCODING 8747
SWIDTH 253 0
DWIDTH 6 0
BBX 10 21 -2 -4
BITMAP
03C0
07C0
0FC0
0E40
0E00
0E00
0E00
0E00
0E00
0E00
1E00
1E00
1E00
1C00
1C00
1C00
1C00
9C00
FC00
F800
F000
ENDCHAR
STARTCHAR approxequal
ENCODING 8776
SWIDTH 548 0
DWIDTH 13 0
BBX 11 9 1 2
BITMAP
7820
FE20
87E0
83C0
0000
7820
FE20
87E0
83C0
ENDCHAR
STARTCHAR notequal
ENCODING 8800
SWIDTH 572 0
DWIDTH 14 0
BBX 12 17 1 0
BITMAP
0100
01C0
0380
0380
FFF0
FFF0
FFF0
0600
0600
0E00
FFF0
FFF0
FFF0
1C00
1800
3800
1800
ENDCHAR
STARTCHAR lessequal
ENCODING 8804
SWIDTH 572 0
DWIDTH 14 0
BBX 12 15 1 0
BITMAP
0030
00F0
03F0
1FC0
7E00
F800
F000
7E00
1FC0
03F0
00F0
0030
0000
FFF0
FFF0
ENDCHAR
STARTCHAR greaterequal
ENCODING 8805
SWIDTH 572 0
DWIDTH 14 0
BBX 12 15 1 0
BITMAP
C000
F000
FC00
3F80
07E0
01F0
00F0
07E0
3F80
FC00
F000
C000
0000
FFF0
FFF0
ENDCHAR
STARTCHAR approxequal.dup8
ENCODING 8946
SWIDTH 548 0
DWIDTH 13 0
BBX 11 9 1 2
BITMAP
7820
FE20
87E0
83C0
0000
7820
FE20
87E0
83C0
ENDCHAR
STARTCHAR lozenge
ENCODING 9674
SWIDTH 553 0
DWIDTH 13 0
BBX 12 19 1 -1
BITMAP
0400
0600
0E00
1F00
1F00
3B80
7BC0
71C0
F0E0
E0F0
F0E0
71C0
3BC0
3B80
1F00
1F00
0E00
0600
0400
ENDCHAR
STARTCHAR apple
ENCODING 61440
SWIDTH 855 0
DWIDTH 21 0
BBX 19 19 0 0
BITMAP
FE01E0
FC03E0
F807E0
F807E0
F00FE0
E01FE0
E01FE0
C03FE0
807FE0
807FE0
807FE0
C03FE0
E01FE0
E01FE0
F00FE0
F807E0
F807E0
FC03E0
FE01E0
ENDCHAR
STARTCHAR fi
ENCODING 61441
SWIDTH 508 0
DWIDTH 12 0
BBX 11 16 0 0
BITMAP
1EE0
3EE0
72E0
70E0
7000
FCE0
FCE0
70E0
70E0
70E0
70E0
70E0
70E0
70E0
70E0
70E0
ENDCHAR
STARTCHAR fl
ENCODING 61442
SWIDTH 507 0
DWIDTH 12 0
BBX 11 16 0 0
BITMAP
1FE0
3FE0
70E0
70E0
70E0
FCE0
FCE0
70E0
70E0
70E0
70E0
70E0
70E0
70E0
70E0
70E0
ENDCHAR
STARTCHAR .notdef
ENCODING -1
SWIDTH 500 0
DWIDTH 12 0
BBX 9 19 2 0
BITMAP
FF80
8180
8180
8180
8180
8180
8180
8180
8180
8180
8180
8180
8180
8180
8180
8180
8180
FF80
FF80
ENDCHAR
STARTCHAR NULL
ENCODING -1
SWIDTH 0 0
DWIDTH 0 0
BBX 1 1 0 0
BITMAP
00
ENDCHAR
STARTCHAR nonmarkingreturn
ENCODING -1
SWIDTH 187 0
DWIDTH 4 0
BBX 1 1 0 0
BITMAP
00
ENDCHAR
STARTCHAR HT
ENCODING -1
SWIDTH 187 0
DWIDTH 4 0
BBX 1 1 0 0
BITMAP
00
ENDCHAR
STARTCHAR CR.001
ENCODING -1
SWIDTH 187 0
DWIDTH 4 0
BBX 1 1 0 0
BITMAP
00
ENDCHAR
ENDFONT
